<svg width="17" height="17" viewBox="0 0 17 17" fill="none" xmlns="http://www.w3.org/2000/svg">
<path d="M8.41967 6.54271C9.27301 6.58271 9.49301 7.30938 9.50634 7.64938H10.6997C10.6463 6.32938 9.70634 5.52271 8.39967 5.52271C6.92634 5.52271 5.83301 6.44938 5.83301 8.54271C5.83301 9.83605 6.45301 11.3694 8.39301 11.3694C9.87301 11.3694 10.6663 10.2694 10.6863 9.40271H9.49301C9.47301 9.79605 9.19301 10.3227 8.40634 10.3627C7.53301 10.336 7.16634 9.65605 7.16634 8.54271C7.16634 6.61605 8.01967 6.55605 8.41967 6.54271ZM8.49967 1.78271C4.81967 1.78271 1.83301 4.76938 1.83301 8.44938C1.83301 12.1294 4.81967 15.116 8.49967 15.116C12.1797 15.116 15.1663 12.1294 15.1663 8.44938C15.1663 4.76938 12.1797 1.78271 8.49967 1.78271ZM8.49967 13.7827C5.55967 13.7827 3.16634 11.3894 3.16634 8.44938C3.16634 5.50938 5.55967 3.11605 8.49967 3.11605C11.4397 3.11605 13.833 5.50938 13.833 8.44938C13.833 11.3894 11.4397 13.7827 8.49967 13.7827Z" fill="#A0AEC0"/>
</svg>
