<svg width="22" height="22" viewBox="0 0 22 22" fill="none" xmlns="http://www.w3.org/2000/svg">
<path d="M14.3 14.6667H15.95C16.225 14.6667 16.5 14.3 16.5 13.9333V6.23333C16.5 5.86667 16.225 5.5 15.95 5.5H14.3C14.025 5.5 13.75 5.86667 13.75 6.23333V13.9333C13.75 14.3 14.025 14.6667 14.3 14.6667ZM18.425 14.6667H20.075C20.35 14.6667 20.625 14.3 20.625 13.9333V0.733334C20.625 0.366667 20.35 0 20.075 0H18.425C18.15 0 17.875 0.366667 17.875 0.733334V13.9333C17.875 14.3 18.15 14.6667 18.425 14.6667ZM6.05 14.6667H7.7C7.975 14.6667 8.25 14.3 8.25 13.9333V9.9C8.25 9.53333 7.975 9.16667 7.7 9.16667H6.05C5.775 9.16667 5.5 9.53333 5.5 9.9V13.9333C5.5 14.3 5.775 14.6667 6.05 14.6667ZM10.175 14.6667H11.825C12.1 14.6667 12.375 14.3 12.375 13.9333V2.56667C12.375 2.2 12.1 1.83333 11.825 1.83333H10.175C9.9 1.83333 9.625 2.2 9.625 2.56667V13.9333C9.625 14.3 9.9 14.6667 10.175 14.6667ZM21.3125 18.3333H2.75V0.916667C2.75 0.410208 2.44234 0 2.0625 0H0.6875C0.307656 0 0 0.410208 0 0.916667V20.1667C0 21.179 0.615742 22 1.375 22H21.3125C21.6923 22 22 21.5898 22 21.0833V19.25C22 18.7435 21.6923 18.3333 21.3125 18.3333Z" fill="#2D3748"/>
</svg>
