<svg width="25" height="25" viewBox="0 0 25 25" fill="none" xmlns="http://www.w3.org/2000/svg">
<path d="M9.12906 9.22473C9.36417 8.5564 9.82821 7.99284 10.439 7.63386C11.0498 7.27489 11.768 7.14367 12.4662 7.26344C13.1645 7.38322 13.7979 7.74626 14.2541 8.28826C14.7104 8.83026 14.9601 9.51625 14.9591 10.2247C14.9591 12.2247 11.9591 13.2247 11.9591 13.2247M12.0391 17.2247H12.0491M22.0391 12.2247C22.0391 17.7476 17.5619 22.2247 12.0391 22.2247C6.51621 22.2247 2.03906 17.7476 2.03906 12.2247C2.03906 6.70188 6.51621 2.22473 12.0391 2.22473C17.5619 2.22473 22.0391 6.70188 22.0391 12.2247Z" stroke="white" stroke-width="1.5" stroke-linecap="round" stroke-linejoin="round"/>
</svg>
