<svg width="24" height="24" viewBox="0 0 24 24" fill="none" xmlns="http://www.w3.org/2000/svg">
<path d="M3.5625 6.85714H18.1875C18.4983 6.85714 18.75 6.56946 18.75 6.21429V3.64286C18.75 3.28768 18.4983 3 18.1875 3H3.5625C3.25172 3 3 3.28768 3 3.64286V6.21429C3 6.56946 3.25172 6.85714 3.5625 6.85714ZM20.4375 10.0714H5.8125C5.50172 10.0714 5.25 10.3591 5.25 10.7143V13.2857C5.25 13.6409 5.50172 13.9286 5.8125 13.9286H20.4375C20.7483 13.9286 21 13.6409 21 13.2857V10.7143C21 10.3591 20.7483 10.0714 20.4375 10.0714ZM18.1875 17.1429H3.5625C3.25172 17.1429 3 17.4305 3 17.7857V20.3571C3 20.7123 3.25172 21 3.5625 21H18.1875C18.4983 21 18.75 20.7123 18.75 20.3571V17.7857C18.75 17.4305 18.4983 17.1429 18.1875 17.1429Z" fill="#2D3748"/>
</svg>
