<svg width="17" height="17" viewBox="0 0 17 17" fill="none" xmlns="http://www.w3.org/2000/svg">
<mask id="mask0_275_2193" style="mask-type:luminance" maskUnits="userSpaceOnUse" x="0" y="0" width="17" height="17">
<path d="M0.5 0.449463H16.5V16.4495H0.5V0.449463Z" fill="white"/>
</mask>
<g mask="url(#mask0_275_2193)">
<path d="M8.44267 0.449463C4.38 0.449463 4.63333 2.22013 4.63333 2.22013L4.638 4.0548H8.514V4.60546H3.1C3.1 4.60546 0.5 4.3088 0.5 8.4288C0.5 12.5488 2.76867 12.4021 2.76867 12.4021H4.122V10.4908C4.122 10.4908 4.04933 8.2108 6.35533 8.2108H10.1993C10.1993 8.2108 12.3593 8.24546 12.3593 6.11213V2.58413C12.3593 2.58413 12.6873 0.449463 8.44267 0.449463ZM6.30533 1.6828C6.69067 1.6828 7.00267 1.99613 7.00267 2.38413C7.00267 2.77146 6.69067 3.0848 6.30533 3.0848C5.92 3.0848 5.608 2.77146 5.608 2.38413C5.608 1.99613 5.91933 1.6828 6.30533 1.6828Z" fill="#A0AEC0"/>
<path d="M8.55829 16.4494C12.6196 16.4494 12.3663 14.6787 12.3663 14.6787L12.3616 12.8441H8.48562V12.2934H13.901C13.901 12.2934 16.501 12.5901 16.501 8.47008C16.501 4.35008 14.2316 4.49674 14.2316 4.49674H12.8783V6.40807C12.8783 6.40807 12.951 8.68808 10.645 8.68808H6.80162C6.80162 8.68808 4.64162 8.65341 4.64162 10.7867V14.3147C4.64162 14.3147 4.31362 16.4494 8.55829 16.4494ZM10.6956 15.2161C10.3096 15.2161 9.99829 14.9027 9.99829 14.5147C9.99829 14.1274 10.3096 13.8141 10.6956 13.8141C11.081 13.8141 11.393 14.1274 11.393 14.5147C11.393 14.9027 11.081 15.2161 10.6956 15.2161Z" fill="#A0AEC0"/>
</g>
</svg>
