<svg width="24" height="24" viewBox="0 0 24 24" fill="none" xmlns="http://www.w3.org/2000/svg">
<path d="M22.7129 8.83568L17.2127 14.3136C16.633 14.891 15.6667 14.4629 15.6667 13.6107V10.7118C10.1447 10.7509 7.81519 12.1263 9.37318 17.6145C9.5444 18.2176 8.88253 18.6847 8.41809 18.3126C6.92976 17.1202 5.58333 14.8395 5.58333 12.5373C5.58333 6.7391 10.075 5.58849 15.6667 5.55578V2.65479C15.6667 1.80183 16.6336 1.37507 17.2127 1.95193L22.7129 7.42996C23.0956 7.81116 23.0959 8.45416 22.7129 8.83568ZM15.6667 16.96V19.7344H3.44444V6.84376H5.38915C5.45087 6.84372 5.51195 6.83052 5.56871 6.80495C5.62547 6.77939 5.67675 6.74198 5.71946 6.69499C6.29058 6.06786 6.95073 5.57149 7.66791 5.17728C8.09301 4.9436 7.9355 4.26563 7.45612 4.26563H2.83333C1.8208 4.26563 1 5.13132 1 6.19923V20.3789C1 21.4468 1.8208 22.3125 2.83333 22.3125H16.2778C17.2903 22.3125 18.1111 21.4468 18.1111 20.3789V16.8015C18.1111 16.4677 17.798 16.2349 17.4996 16.3462C17.0811 16.5023 16.6331 16.549 16.1937 16.4823C15.9161 16.4401 15.6667 16.6641 15.6667 16.96Z" fill="#2D3748"/>
</svg>
