<svg width="25" height="26" viewBox="0 0 25 26" fill="none" xmlns="http://www.w3.org/2000/svg">
<path d="M9.39301 22.2247C10.0981 22.8471 11.0244 23.2247 12.0388 23.2247C13.0533 23.2247 13.9795 22.8471 14.6847 22.2247M18.0388 9.22473C18.0388 7.63343 17.4067 6.10731 16.2815 4.98209C15.1563 3.85687 13.6301 3.22473 12.0388 3.22473C10.4475 3.22473 8.92141 3.85687 7.7962 4.98209C6.67098 6.10731 6.03884 7.63343 6.03884 9.22473C6.03884 12.3149 5.25931 14.4307 4.3885 15.8301C3.65396 17.0106 3.2867 17.6008 3.30016 17.7655C3.31507 17.9478 3.3537 18.0173 3.50061 18.1263C3.6333 18.2247 4.23143 18.2247 5.42769 18.2247H18.65C19.8462 18.2247 20.4444 18.2247 20.5771 18.1263C20.724 18.0173 20.7626 17.9478 20.7775 17.7655C20.791 17.6008 20.4237 17.0106 19.6892 15.8301C18.8184 14.4307 18.0388 12.3149 18.0388 9.22473Z" stroke="white" stroke-linecap="round" stroke-linejoin="round"/>
<circle cx="17.3404" cy="4.52603" r="3.8013" fill="#30465F" stroke="white"/>
</svg>
