<svg width="34" height="34" viewBox="0 0 34 34" fill="none" xmlns="http://www.w3.org/2000/svg">
<path d="M12.1514 12.6987C12.1514 12.4501 12.2699 12.2116 12.4809 12.0358C12.6918 11.86 12.978 11.7612 13.2764 11.7612H21.1514C21.4497 11.7612 21.7359 11.86 21.9469 12.0358C22.1578 12.2116 22.2764 12.4501 22.2764 12.6987C22.2764 12.9474 22.1578 13.1858 21.9469 13.3616C21.7359 13.5375 21.4497 13.6362 21.1514 13.6362H13.2764C12.978 13.6362 12.6918 13.5375 12.4809 13.3616C12.2699 13.1858 12.1514 12.9474 12.1514 12.6987ZM12.1514 18.3237C12.1514 18.0751 12.2699 17.8366 12.4809 17.6608C12.6918 17.485 12.978 17.3862 13.2764 17.3862H21.1514C21.4497 17.3862 21.7359 17.485 21.9469 17.6608C22.1578 17.8366 22.2764 18.0751 22.2764 18.3237C22.2764 18.5724 22.1578 18.8108 21.9469 18.9866C21.7359 19.1625 21.4497 19.2612 21.1514 19.2612H13.2764C12.978 19.2612 12.6918 19.1625 12.4809 18.9866C12.2699 18.8108 12.1514 18.5724 12.1514 18.3237ZM12.1514 23.9487C12.1514 23.7001 12.2699 23.4616 12.4809 23.2858C12.6918 23.11 12.978 23.0112 13.2764 23.0112H21.1514C21.4497 23.0112 21.7359 23.11 21.9469 23.2858C22.1578 23.4616 22.2764 23.7001 22.2764 23.9487C22.2764 24.1974 22.1578 24.4358 21.9469 24.6116C21.7359 24.7875 21.4497 24.8862 21.1514 24.8862H13.2764C12.978 24.8862 12.6918 24.7875 12.4809 24.6116C12.2699 24.4358 12.1514 24.1974 12.1514 23.9487ZM9.90137 12.6987C9.90137 13.0717 9.72358 13.4294 9.40711 13.6931C9.09064 13.9568 8.66142 14.105 8.21387 14.105C7.76631 14.105 7.33709 13.9568 7.02062 13.6931C6.70416 13.4294 6.52637 13.0717 6.52637 12.6987C6.52637 12.3258 6.70416 11.9681 7.02062 11.7044C7.33709 11.4406 7.76631 11.2925 8.21387 11.2925C8.66142 11.2925 9.09064 11.4406 9.40711 11.7044C9.72358 11.9681 9.90137 12.3258 9.90137 12.6987ZM9.90137 18.3237C9.90137 18.6967 9.72358 19.0544 9.40711 19.3181C9.09064 19.5818 8.66142 19.73 8.21387 19.73C7.76631 19.73 7.33709 19.5818 7.02062 19.3181C6.70416 19.0544 6.52637 18.6967 6.52637 18.3237C6.52637 17.9508 6.70416 17.5931 7.02062 17.3294C7.33709 17.0656 7.76631 16.9175 8.21387 16.9175C8.66142 16.9175 9.09064 17.0656 9.40711 17.3294C9.72358 17.5931 9.90137 17.9508 9.90137 18.3237ZM8.21387 25.355C8.66142 25.355 9.09064 25.2068 9.40711 24.9431C9.72358 24.6794 9.90137 24.3217 9.90137 23.9487C9.90137 23.5758 9.72358 23.2181 9.40711 22.9544C9.09064 22.6906 8.66142 22.5425 8.21387 22.5425C7.76631 22.5425 7.33709 22.6906 7.02062 22.9544C6.70416 23.2181 6.52637 23.5758 6.52637 23.9487C6.52637 24.3217 6.70416 24.6794 7.02062 24.9431C7.33709 25.2068 7.76631 25.355 8.21387 25.355ZM7.84262 2.38623C8.07536 1.83765 8.50655 1.36272 9.07676 1.02691C9.64697 0.691095 10.3281 0.510926 11.0264 0.511231H17.7764C18.4746 0.510926 19.1558 0.691095 19.726 1.02691C20.2962 1.36272 20.7274 1.83765 20.9601 2.38623H24.5264C25.4215 2.38623 26.2799 2.68255 26.9129 3.20999C27.5458 3.73744 27.9014 4.45281 27.9014 5.19873V27.6987C27.9014 28.4447 27.5458 29.16 26.9129 29.6875C26.2799 30.2149 25.4215 30.5112 24.5264 30.5112H4.27637C3.38126 30.5112 2.52282 30.2149 1.88988 29.6875C1.25695 29.16 0.901367 28.4447 0.901367 27.6987V5.19873C0.901367 4.45281 1.25695 3.73744 1.88988 3.20999C2.52282 2.68255 3.38126 2.38623 4.27637 2.38623H7.84262ZM11.0264 2.38623C10.728 2.38623 10.4418 2.485 10.2309 2.66082C10.0199 2.83663 9.90137 3.07509 9.90137 3.32373C9.90137 3.57237 10.0199 3.81083 10.2309 3.98664C10.4418 4.16246 10.728 4.26123 11.0264 4.26123H17.7764C18.0747 4.26123 18.3609 4.16246 18.5719 3.98664C18.7828 3.81083 18.9014 3.57237 18.9014 3.32373C18.9014 3.07509 18.7828 2.83663 18.5719 2.66082C18.3609 2.485 18.0747 2.38623 17.7764 2.38623H11.0264ZM7.84262 4.26123H4.27637C3.978 4.26123 3.69185 4.36 3.48087 4.53582C3.26989 4.71163 3.15137 4.95009 3.15137 5.19873V27.6987C3.15137 27.9474 3.26989 28.1858 3.48087 28.3616C3.69185 28.5375 3.978 28.6362 4.27637 28.6362H24.5264C24.8247 28.6362 25.1109 28.5375 25.3219 28.3616C25.5328 28.1858 25.6514 27.9474 25.6514 27.6987V5.19873C25.6514 4.95009 25.5328 4.71163 25.3219 4.53582C25.1109 4.36 24.8247 4.26123 24.5264 4.26123H20.9601C20.7274 4.80981 20.2962 5.28474 19.726 5.62055C19.1558 5.95637 18.4746 6.13654 17.7764 6.13623H11.0264C10.3281 6.13654 9.64697 5.95637 9.07676 5.62055C8.50655 5.28474 8.07536 4.80981 7.84262 4.26123Z" fill="#EF5350"/>
</svg>
