<svg width="31" height="31" viewBox="0 0 31 31" fill="none" xmlns="http://www.w3.org/2000/svg">
<path d="M15.4951 0.555176C7.21387 0.555176 0.495117 7.27393 0.495117 15.5552C0.495117 23.8427 7.21387 30.5552 15.4951 30.5552C23.7826 30.5552 30.4951 23.8427 30.4951 15.5552C30.4951 7.26768 23.7826 0.555176 15.4951 0.555176ZM15.4951 4.30518C21.7076 4.30518 26.7451 9.34268 26.7451 15.5552C26.7451 21.7677 21.7076 26.8052 15.4951 26.8052C9.28262 26.8052 4.24512 21.7677 4.24512 15.5552C4.24512 9.34268 9.28262 4.30518 15.4951 4.30518ZM21.2014 8.31768C20.7951 8.31768 20.4201 8.46768 20.1514 8.83018C16.9014 13.2114 15.8389 14.8614 13.5264 19.4427C13.0014 18.7489 9.42637 14.9177 7.65762 13.5614C6.77012 12.8802 5.07637 15.2614 5.68262 15.8802C8.40762 18.6864 13.2514 24.9302 14.0389 24.8677C15.3764 24.7614 18.7326 16.3177 23.3389 10.2614C23.8389 9.61143 22.4014 8.30518 21.2014 8.31768Z" fill="#7CB342"/>
</svg>
