<svg width="34" height="34" viewBox="0 0 34 34" fill="none" xmlns="http://www.w3.org/2000/svg">
<path d="M20.0487 2.4209V5.45545C26.65 6.26667 31.3266 12.2607 30.5146 18.8556C29.8229 24.3238 25.5222 28.6653 20.0487 29.3112V32.3157C28.3192 31.4895 34.334 24.1585 33.507 15.8961C32.8303 8.76041 27.1613 3.12696 20.0487 2.4209ZM17.0413 2.46597C14.109 2.75139 11.3121 3.87808 9.02646 5.77092L11.1768 7.99426C12.8609 6.64223 14.891 5.77092 17.0413 5.47047V2.46597ZM6.90622 7.8891C5.02724 10.1692 3.87036 12.9567 3.58301 15.8961H6.59044C6.87615 13.7629 7.71823 11.7349 9.05654 10.0373L6.90622 7.8891ZM3.59804 18.9006C3.89879 21.845 5.05665 24.6242 6.92126 26.9076L9.05654 24.7594C7.72852 23.0613 6.88195 21.0378 6.60548 18.9006H3.59804ZM11.1768 26.9677L9.02646 29.0258C11.3045 30.9222 14.093 32.1034 17.0413 32.4209V29.4164C14.9021 29.1402 12.8765 28.2944 11.1768 26.9677ZM19.2969 9.8871V17.7739L26.0636 21.7849L24.9358 23.6327L17.0413 18.9006V9.8871H19.2969Z" fill="#DCAD22"/>
</svg>
